<?xml version="1.0" encoding="utf-8"?>
<!-- Generator: Adobe Illustrator 21.1.0, SVG Export Plug-In . SVG Version: 6.00 Build 0)  -->
<svg version="1.1" id="Capa_1" xmlns="http://www.w3.org/2000/svg" xmlns:xlink="http://www.w3.org/1999/xlink" x="0px" y="0px"
	 viewBox="0 0 496 496" style="enable-background:new 0 0 496 496;" xml:space="preserve">
<style type="text/css">
	.st0{fill:#FFA64D;}
	.st1{fill:#575756;}
</style>
<g>
	<circle class="st0" cx="392" cy="96" r="48"/>
	<circle class="st0" cx="104" cy="96" r="48"/>
	<polygon class="st0" points="304,136 320,88 264,8 232,8 176,88 192,136 	"/>
</g>
<g>
	<path class="st1" d="M160,264c-13.2,0-24-10.8-24-24h-16c0,22.1,17.9,40,40,40s40-17.9,40-40h-16C184,253.2,173.2,264,160,264z"/>
	<path class="st1" d="M336,264c-13.2,0-24-10.8-24-24h-16c0,22.1,17.9,40,40,40s40-17.9,40-40h-16C360,253.2,349.2,264,336,264z"/>
	<path class="st1" d="M480,240c0-28.2-20.9-51.5-48-55.4V176c0-24.9-51.6-36.9-95-42.6l-2.1,15.9c60.6,8,81,21.7,81,26.7
		c0,10.9-59.3,32-168,32S80,186.9,80,176c0-5,20.4-18.7,81-26.7l-2.1-15.9c-43.3,5.7-95,17.7-95,42.6v8.6c-27.1,3.9-48,27.2-48,55.4
		c0,28.2,21,51.6,48.2,55.4C67,365,108.6,424.9,168,453.7V496h16v-35.5c19.9,7.4,41.5,11.5,64,11.5s44.1-4.1,64-11.5V496h16v-42.3
		c59.4-28.8,101-88.6,103.8-158.3C459,291.6,480,268.2,480,240z M32,240c0-19.3,13.8-35.5,32-39.2v78.4C45.8,275.5,32,259.3,32,240z
		 M248,456c-92.6,0-168-75.4-168-168v-90.6c34.9,20.5,118.5,26.6,168,26.6s133.1-6.1,168-26.6V288C416,380.6,340.6,456,248,456z
		 M432,279.2v-78.4c18.2,3.7,32,19.9,32,39.2S450.2,275.5,432,279.2z"/>
	<polygon class="st1" points="304,192 304,176 320,176 320,128 176,128 176,176 192,176 192,192 208,192 208,176 256,176 256,160 
		192,160 192,144 304,144 304,160 272,160 272,176 288,176 288,192 	"/>
	<path class="st1" d="M104,128c17.6,0,32-14.4,32-32c0-8.1-3.1-15.4-8.1-21.1c27.1-35,67.9-56.4,112.1-58.7v32.9
		c-13.8,3.6-24,16-24,30.9c0,17.6,14.4,32,32,32s32-14.4,32-32c0-14.9-10.2-27.3-24-30.9V16.2c44.3,2.3,85,23.7,112.1,58.7
		c-5,5.6-8.1,13-8.1,21.1c0,17.6,14.4,32,32,32s32-14.4,32-32s-14.4-32-32-32c-3.7,0-7.3,0.8-10.6,1.9C349.7,24.5,300.7,0,248,0
		c-52.7,0-101.7,24.5-133.4,65.9c-3.3-1.2-6.8-1.9-10.6-1.9c-17.6,0-32,14.4-32,32S86.4,128,104,128z M408,96c0,8.8-7.2,16-16,16
		s-16-7.2-16-16s7.2-16,16-16S408,87.2,408,96z M264,80c0,8.8-7.2,16-16,16s-16-7.2-16-16s7.2-16,16-16S264,71.2,264,80z M104,80
		c8.8,0,16,7.2,16,16s-7.2,16-16,16s-16-7.2-16-16S95.2,80,104,80z"/>
</g>
</svg>
