<?xml version="1.0" encoding="utf-8"?>
<!-- Generator: Adobe Illustrator 21.1.0, SVG Export Plug-In . SVG Version: 6.00 Build 0)  -->
<svg version="1.1" id="Layer_1" xmlns="http://www.w3.org/2000/svg" xmlns:xlink="http://www.w3.org/1999/xlink" x="0px" y="0px"
	 viewBox="0 0 290.6 290.6" style="enable-background:new 0 0 290.6 290.6;" xml:space="preserve">
<style type="text/css">
	.st0{fill:#FFA64D;}
	.st1{fill:#575756;}
</style>
<circle class="st0" cx="145.3" cy="173.4" r="84.4"/>
<path class="st1" d="M276.6,65.6h-37.5c0-6.1-3.9-11.2-9.4-13.2V42.3c0-18.2-14.8-33-33-33H94c-18.2,0-33.1,14.8-33.1,33v10.1
	c-4.7,1.9-9.3,7.1-9.4,13.2H14.1C6.3,65.6,0,71.9,0,79.7v187.5c0,7.8,6.3,14.1,14.1,14.1h262.5c7.8,0,14.1-6.3,14.1-14.1V79.7
	C290.6,71.9,284.3,65.6,276.6,65.6z M98.4,65.6c0-6.1-3.9-11.2-9.4-13.2v-6.6c0-4.6,3.7-8.3,8.3-8.3h95.8c4.6,0,8.3,3.7,8.3,8.3v6.6
	c-5.4,2-9.3,7.1-9.4,13.2L98.4,65.6L98.4,65.6z M206.3,60.9h18.6c2.6,0,4.7,2.1,4.8,4.7h-28.1C201.6,63,203.7,60.9,206.3,60.9z
	 M70.3,42.3c0-13,10.7-23.6,23.7-23.6h102.7c13,0,23.6,10.6,23.6,23.6v9.2h-9.4v-5.7c0-9.8-7.9-17.7-17.7-17.7H97.4
	c-9.8,0-17.7,7.9-17.7,17.7v5.7h-9.4L70.3,42.3C70.3,42.3,70.3,42.3,70.3,42.3z M65.7,60.9h18.6c2.6,0,4.7,2.1,4.8,4.7H60.9
	C61,63,63.1,60.9,65.7,60.9z M14.1,75h37.5h46.9h93.8h46.9h37.5c2.6,0,4.7,2.1,4.7,4.7v56.8l-52.2,7c-12.3-34.4-45.2-59.1-83.8-59.1
	s-71.4,24.7-83.8,59.1l-52.2-7V79.7C9.4,77.1,11.5,75,14.1,75z M194.9,168.8c0-1.4-0.1-2.9-0.2-4.3c4.3-2.2,7.3-6.6,7.3-11.7
	c0-6.7-5.1-12.2-11.6-13c-0.9-3.1-1.9-6-3-8.8c5.9-3.2,11.3-7,16.4-11.5c12.1,13.1,19.8,30.3,21,49.2H194.9z M150,97.3
	c6.7,4.7,17.2,13.8,25.1,29.1c-7.9,3.2-16.4,5-25.1,5.5V97.3z M123.6,110.6c0,2.1-1.7,3.8-3.8,3.8s-3.8-1.7-3.8-3.8s1.7-3.8,3.8-3.8
	S123.6,108.5,123.6,110.6z M117.2,123.4c0.9,0.2,1.7,0.3,2.6,0.3c7.2,0,13.1-5.9,13.1-13.1c0-2.1-0.5-4-1.4-5.8
	c3.3-3.2,6.4-5.6,9-7.4V132c-8.7-0.5-17.2-2.3-25.1-5.5C116.1,125.4,116.6,124.4,117.2,123.4z M140.6,141.3v27.4h-35.5
	c0.4-12.2,2.7-23.5,6.6-33.7C120.8,138.7,130.6,140.8,140.6,141.3z M140.6,178.1v27.3c-0.3,0-0.7,0.1-1,0.1c-2.2-4-6.5-6.8-11.4-6.8
	c-6.8,0-12.3,5.2-13,11.8c-1.2,0.4-2.3,0.9-3.4,1.3c-3.6-9.3-6.1-20.6-6.6-33.8L140.6,178.1L140.6,178.1z M131.9,211.9
	c0,2.1-1.7,3.8-3.8,3.8s-3.8-1.7-3.8-3.8s1.7-3.8,3.8-3.8S131.9,209.8,131.9,211.9z M117.7,219.7c2.4,3.2,6.2,5.3,10.5,5.3
	c5.8,0,10.7-3.8,12.4-9.1v33.6c-6.7-4.7-17.1-13.8-24.9-29C116.4,220.3,117.1,220,117.7,219.7z M150,249.6v-34.7
	c8.7,0.5,17.1,2.4,25.1,5.6C167.2,235.9,156.7,245,150,249.6z M150,205.5v-27.3h35.4c-0.5,13.3-2.9,24.5-6.5,33.8
	C169.8,208.2,160,206,150,205.5z M150,168.8v-27.4c10-0.5,19.8-2.6,28.9-6.3c0.9,2.2,1.7,4.6,2.4,7c-3.4,2.4-5.6,6.3-5.6,10.7
	c0,6,4.1,11,9.6,12.6c0.1,1.1,0.1,2.3,0.2,3.4L150,168.8L150,168.8z M188.8,156.5c-2.1,0-3.8-1.7-3.8-3.8s1.7-3.8,3.8-3.8
	s3.8,1.7,3.8,3.8S190.9,156.5,188.8,156.5z M183.6,122.4c-6.1-12-13.6-20.6-20.3-26.5c12.7,2.9,24.2,8.9,33.8,17.1
	C192.9,116.6,188.3,119.7,183.6,122.4z M124.7,98.4c-1.1-0.5-2.4-0.7-3.7-0.8c2.1-0.7,4.2-1.2,6.4-1.7
	C126.6,96.6,125.7,97.5,124.7,98.4z M109.3,118.3c-0.8,1.3-1.5,2.7-2.2,4.1c-4.8-2.6-9.3-5.8-13.5-9.4c4.9-4.2,10.4-7.8,16.3-10.8
	c-1.9,2.3-3.1,5.2-3.1,8.4C106.7,113.5,107.7,116.1,109.3,118.3z M86.8,119.5c5.1,4.5,10.6,8.3,16.4,11.5c-4.5,11.5-7,24.1-7.5,37.8
	H65.9C67,149.8,74.7,132.6,86.8,119.5z M95.7,178.1c0.5,14.9,3.3,27.4,7.4,37.8c-5.8,3.2-11.4,7-16.4,11.3
	C74.7,214.2,67,197,65.9,178.1H95.7z M107,224.6c6,11.9,13.6,20.4,20.2,26.3c-12.6-2.9-24.1-8.9-33.6-17
	C97.8,230.4,102.2,227.3,107,224.6z M183.6,224.6c4.8,2.6,9.3,5.7,13.4,9.3c-9.5,8.2-21,14.1-33.6,17
	C170,245.1,177.6,236.5,183.6,224.6z M203.9,227.3c-5.1-4.4-10.6-8.2-16.4-11.3c4.1-10.4,6.9-22.9,7.4-37.8h29.9
	C223.7,197,215.9,214.2,203.9,227.3z M276.6,271.9H14.1c-2.6,0-4.7-2.1-4.7-4.7V146l49.4,6.6c-1.6,6.7-2.6,13.7-2.6,20.9
	c0,49.1,40,89.1,89.1,89.1s89.1-40,89.1-89.1c0-7.2-1-14.2-2.6-20.9l49.4-6.6v121.2C281.2,269.8,279.1,271.9,276.6,271.9z"/>
</svg>
