<?xml version="1.0" encoding="utf-8"?>
<!-- Generator: Adobe Illustrator 21.1.0, SVG Export Plug-In . SVG Version: 6.00 Build 0)  -->
<svg version="1.1" id="Capa_1" xmlns="http://www.w3.org/2000/svg" xmlns:xlink="http://www.w3.org/1999/xlink" x="0px" y="0px"
	 viewBox="0 0 496 496" style="enable-background:new 0 0 496 496;" xml:space="preserve">
<style type="text/css">
	.st0{fill:#F5A351;}
	.st1{fill:#575756;}
</style>
<path class="st0" d="M248.9,132.3c-29.9,0.5-57.8,12.5-78.9,33.7c-21.4,21.5-33.2,50.1-33.2,80.4s11.8,58.9,33.2,80.4
	c21.1,21.2,49.1,33.2,78.9,33.7c0.1,0,3.3,0,3.4,0c29.9-0.5,57.8-12.5,78.9-33.7c21.4-21.5,33.2-50.1,33.2-80.4
	s-11.8-58.9-33.2-80.4c-21.1-21.2-49.1-33.2-78.9-33.7C252.1,132.3,249,132.3,248.9,132.3L248.9,132.3z M205,160.2
	c-4.5,6.6-8.6,14.2-12,22.7c-4-1.6-7.8-3.4-11.3-5.4C188.6,170.7,196.4,164.8,205,160.2L205,160.2z M171,190.3
	c5.2,3,10.8,5.8,16.8,8.2c-3.4,12.4-5.5,25.9-6.1,39.7h-28.1C155.1,220.5,161.3,204.1,171,190.3L171,190.3z M153.6,254.6h28.1
	c0.6,13.8,2.7,27.3,6.1,39.7c-6,2.4-11.7,5.1-16.8,8.2C161.3,288.7,155.1,272.3,153.6,254.6L153.6,254.6z M181.8,315.3
	c3.5-1.9,7.3-3.7,11.3-5.4c3.4,8.5,7.5,16.2,12,22.7C196.4,328,188.6,322.2,181.8,315.3L181.8,315.3z M242.7,342.9
	c-13.3-4.1-25.7-17.8-34-38.1c10.7-2.9,22.2-4.6,34-5.2V342.9z M242.7,283.1c-13.6,0.6-27,2.6-39.3,6c-2.9-10.8-4.7-22.5-5.3-34.5
	h44.6L242.7,283.1L242.7,283.1z M242.7,238.2h-44.6c0.6-12,2.3-23.7,5.3-34.5c12.3,3.4,25.7,5.4,39.3,6L242.7,238.2L242.7,238.2z
	 M242.7,193.2c-11.8-0.6-23.4-2.3-34-5.2c8.4-20.3,20.7-34.1,34-38.1V193.2z M296,332.6c4.5-6.6,8.6-14.2,12-22.7
	c4,1.6,7.8,3.4,11.3,5.4C312.5,322.2,304.6,328,296,332.6L296,332.6z M330.1,302.5c-5.2-3-10.8-5.8-16.8-8.2
	c3.4-12.4,5.5-25.9,6.1-39.7h28.1C346,272.3,339.8,288.7,330.1,302.5L330.1,302.5z M347.5,238.2h-28.1c-0.6-13.8-2.7-27.3-6.1-39.7
	c6-2.4,11.7-5.1,16.8-8.2C339.8,204.1,346,220.5,347.5,238.2L347.5,238.2z M319.3,177.5c-3.5,1.9-7.3,3.7-11.3,5.4
	c-3.4-8.5-7.5-16.2-12-22.7C304.6,164.8,312.5,170.7,319.3,177.5L319.3,177.5z M259.2,150.2c13,4.3,25,18,33.2,37.9
	c-10.4,2.8-21.7,4.5-33.2,5.1V150.2z M259.2,238.2v-28.5c13.3-0.6,26.4-2.7,38.5-6c2.9,10.8,4.7,22.5,5.3,34.5H259.2L259.2,238.2z
	 M259.2,254.6H303c-0.6,12-2.3,23.7-5.3,34.5c-12.1-3.3-25.2-5.3-38.5-6V254.6z M259.2,299.6c11.5,0.6,22.8,2.3,33.2,5.1
	c-8.2,19.9-20.2,33.5-33.2,37.9V299.6z"/>
<path class="st1" d="M220.3,97h60.6c4.5,0,8.2-3.7,8.2-8.2V28.2c0-4.5-3.7-8.2-8.2-8.2h-60.6c-4.5,0-8.2,3.7-8.2,8.2v60.6
	C212,93.3,215.7,97,220.3,97L220.3,97z M228.5,36.4h44.1v44.1h-44.1V36.4z"/>
<path class="st1" d="M257.6,400.3c-1.5-2.4-4.2-3.9-7-3.9c-2.9,0-5.5,1.5-7,3.9l-36.3,59.4c-1.5,2.5-1.6,5.7-0.2,8.3
	c1.5,2.6,4.2,4.2,7.2,4.2h72.5c3,0,5.7-1.6,7.2-4.2s1.4-5.8-0.2-8.3L257.6,400.3z M228.9,455.8l21.6-35.4l21.6,35.4H228.9z"/>
<path class="st1" d="M106.3,246.4c0-24.1-19.6-43.6-43.6-43.6c-24.1,0-43.6,19.6-43.6,43.6c0,24.1,19.6,43.6,43.6,43.6
	S106.3,270.5,106.3,246.4L106.3,246.4z M62.6,273.6c-15,0-27.2-12.2-27.2-27.2c0-15,12.2-27.2,27.2-27.2s27.2,12.2,27.2,27.2
	C89.9,261.4,77.6,273.6,62.6,273.6L62.6,273.6z"/>
<path class="st1" d="M468.8,265.1l-18.7-18.7l18.7-18.7c3.2-3.2,3.2-8.4,0-11.6c-3.2-3.2-8.4-3.2-11.6,0l-18.7,18.7l-18.7-18.7
	c-3.2-3.2-8.4-3.2-11.6,0s-3.2,8.4,0,11.6l18.7,18.7l-18.7,18.7c-3.2,3.2-3.2,8.4,0,11.6c1.6,1.6,3.7,2.4,5.8,2.4
	c2.1,0,4.2-0.8,5.8-2.4l18.7-18.7l18.7,18.7c1.6,1.6,3.7,2.4,5.8,2.4c2.1,0,4.2-0.8,5.8-2.4C472,273.6,472,268.4,468.8,265.1
	L468.8,265.1z"/>
<path class="st1" d="M74.9,171.8c1.1,0.5,2.3,0.8,3.5,0.8c3.1,0,6-1.7,7.4-4.7c18.2-38.1,49.3-69,87.6-86.8c4.1-1.9,5.9-6.8,4-10.9
	s-6.8-5.9-10.9-4c-41.7,19.5-75.6,53.1-95.4,94.6C69.1,164.9,70.8,169.8,74.9,171.8L74.9,171.8z"/>
<path class="st1" d="M427.4,318c-4.1-1.9-9-0.1-10.9,4.1c-18,39.5-49.6,71.3-88.9,89.7c-4.1,1.9-5.9,6.8-4,10.9
	c1.4,3,4.4,4.7,7.5,4.7c1.2,0,2.3-0.3,3.5-0.8c42.9-20,77.3-54.7,96.9-97.7C433.4,324.8,431.5,319.9,427.4,318L427.4,318z"/>
<path class="st1" d="M327.6,81.1c38.3,17.9,69.4,48.7,87.6,86.8c1.4,3,4.4,4.7,7.4,4.7c1.2,0,2.4-0.3,3.5-0.8c4.1-2,5.8-6.9,3.9-11
	c-19.8-41.5-53.7-75.1-95.5-94.6c-4.1-1.9-9-0.1-10.9,4C321.7,74.2,323.5,79.1,327.6,81.1L327.6,81.1z"/>
<path class="st1" d="M173.5,411.8c-39.3-18.4-70.9-50.2-88.9-89.7c-1.9-4.1-6.8-5.9-10.9-4.1c-4.1,1.9-5.9,6.8-4.1,10.9
	c19.6,43,54,77.7,96.9,97.7c1.1,0.5,2.3,0.8,3.5,0.8c3.1,0,6.1-1.8,7.5-4.7C179.4,418.6,177.6,413.7,173.5,411.8L173.5,411.8z"/>
</svg>
