<?xml version="1.0" encoding="utf-8"?>
<!-- Generator: Adobe Illustrator 21.1.0, SVG Export Plug-In . SVG Version: 6.00 Build 0)  -->
<svg version="1.1" id="Capa_1" xmlns="http://www.w3.org/2000/svg" xmlns:xlink="http://www.w3.org/1999/xlink" x="0px" y="0px"
	 viewBox="0 0 496 496" style="enable-background:new 0 0 496 496;" xml:space="preserve">
<style type="text/css">
	.st0{fill:#FFA64D;}
	.st1{fill:#575756;}
</style>
<circle class="st0" cx="248" cy="104" r="64"/>
<g>
	<path class="st1" d="M160,264c-13.2,0-24-10.8-24-24h-16c0,22.1,17.9,40,40,40s40-17.9,40-40h-16C184,253.2,173.2,264,160,264z"/>
	<path class="st1" d="M336,264c-13.2,0-24-10.8-24-24h-16c0,22.1,17.9,40,40,40s40-17.9,40-40h-16C360,253.2,349.2,264,336,264z"/>
	<path class="st1" d="M480,240c0-28.2-20.9-51.5-48-55.4V176c0-11-9.5-20-29.1-27.6l-5.8,14.9c15.5,6,18.9,11.2,18.9,12.7
		c0,10.9-59.3,32-168,32S80,186.9,80,176c0-1.5,3.4-6.7,18.9-12.7l-5.8-14.9C73.5,156,64,165,64,176v8.6c-27.1,3.9-48,27.2-48,55.4
		c0,28.2,21,51.6,48.2,55.4C67,365,108.6,424.9,168,453.7V496h16v-35.5c19.9,7.4,41.5,11.5,64,11.5s44.1-4.1,64-11.5V496h16v-42.3
		c59.4-28.8,101-88.6,103.8-158.3C459,291.6,480,268.2,480,240z M32,240c0-19.3,13.8-35.5,32-39.2v78.4C45.8,275.5,32,259.3,32,240z
		 M248,456c-92.6,0-168-75.4-168-168v-90.6c34.9,20.5,118.5,26.6,168,26.6s133.1-6.1,168-26.6V288C416,380.6,340.6,456,248,456z
		 M432,279.2v-78.4c18.2,3.7,32,19.9,32,39.2S450.2,275.5,432,279.2z"/>
	<path class="st1" d="M72,80c1.7,0,3.4-0.2,5-0.6l40.4,65.6c-3.3,4.1-5.4,9.3-5.4,15c0,13.2,10.8,24,24,24c10,0,18.6-6.2,22.2-14.9
		l66.2,11c2,11.2,11.8,19.8,23.6,19.8c11.6,0,21.3-8.3,23.5-19.3l67.3-9.6c4,7.6,11.9,12.9,21.2,12.9c13.2,0,24-10.8,24-24
		c0-4.3-1.2-8.3-3.2-11.7l34.5-46c2.7,1.1,5.6,1.7,8.7,1.7c13.2,0,24-10.8,24-24s-10.8-24-24-24c-4.6,0-8.9,1.4-12.6,3.7l-44.8-28
		c0.8-2.4,1.4-5,1.4-7.7c0-13.2-10.8-24-24-24c-10.6,0-19.6,7-22.7,16.6L181.7,29.9C177.9,21.7,169.6,16,160,16
		c-11.9,0-21.8,8.8-23.6,20.2l-43.7,7.9C88.6,36.9,80.9,32,72,32c-13.2,0-24,10.8-24,24S58.8,80,72,80z M147.7,60.5l-15.2,75.8
		c-0.5,0.1-1.1,0.1-1.6,0.2L90.6,71c2.6-3.2,4.3-7,5-11.1l43.7-7.9C141.3,55.4,144.2,58.4,147.7,60.5z M183.2,45.8l138.5-13.2
		c0.1,0.2,0.1,0.4,0.2,0.6l-42.3,34.6C271.1,60.5,260.1,56,248,56c-26.5,0-48,21.5-48,48c0,4.9,0.7,9.6,2.1,14l-49.5,24.7
		c-1.3-1.3-2.8-2.3-4.4-3.3l15.2-75.8C173.1,62.3,180.9,55.2,183.2,45.8z M344,48c4.6,0,8.9-1.4,12.6-3.7l44.8,28
		c-0.8,2.4-1.4,5-1.4,7.7c0,4.3,1.2,8.3,3.2,11.7l-34.5,46c-2.7-1.1-5.6-1.7-8.7-1.7c-6.5,0-12.3,2.6-16.6,6.8L293.9,118
		c1.4-4.4,2.1-9.1,2.1-14c0-8.6-2.3-16.7-6.3-23.8l43-35.2C336.1,46.9,339.9,48,344,48z M248,152c-9,0-16.8,5-20.9,12.4l-61.5-10.3
		l43.7-21.9C218,144.2,232.1,152,248,152s30-7.8,38.7-19.7l46.8,23.4l-64.4,9.2C265.1,157.3,257.2,152,248,152z M280,104
		c0,17.6-14.4,32-32,32s-32-14.4-32-32s14.4-32,32-32S280,86.4,280,104z M136,168c-4.4,0-8-3.6-8-8s3.6-8,8-8s8,3.6,8,8
		S140.4,168,136,168z M248,184c-4.4,0-8-3.6-8-8s3.6-8,8-8s8,3.6,8,8S252.4,184,248,184z M360,168c-4.4,0-8-3.6-8-8s3.6-8,8-8
		s8,3.6,8,8S364.4,168,360,168z M432,80c0,4.4-3.6,8-8,8s-8-3.6-8-8s3.6-8,8-8S432,75.6,432,80z M344,16c4.4,0,8,3.6,8,8s-3.6,8-8,8
		s-8-3.6-8-8S339.6,16,344,16z M160,32c4.4,0,8,3.6,8,8s-3.6,8-8,8s-8-3.6-8-8S155.6,32,160,32z M72,48c4.4,0,8,3.6,8,8s-3.6,8-8,8
		s-8-3.6-8-8S67.6,48,72,48z"/>
</g>
</svg>
